<?xml version="1.0" encoding="UTF-8" standalone="no"?>
<!DOCTYPE svg PUBLIC "-//W3C//DTD SVG 1.1//EN" "http://www.w3.org/Graphics/SVG/1.1/DTD/svg11.dtd">
<svg width="100%" height="100%" viewBox="0 0 1080 1080" version="1.1" xmlns="http://www.w3.org/2000/svg" xmlns:xlink="http://www.w3.org/1999/xlink" xml:space="preserve" xmlns:serif="http://www.serif.com/" style="fill-rule:evenodd;clip-rule:evenodd;stroke-miterlimit:2;">
    <g id="Logo">
        <g id="Letters" transform="matrix(0.794025,0,0,0.794025,-25.2463,111.226)">
            <g>
                <g transform="matrix(2.95186,0,0,2.95186,-324.432,-1151.21)">
                    <path d="M426.721,755.866L413.074,755.866L284.943,587.906L343.811,587.906L426.721,693.429L426.721,755.866Z" style="fill:rgb(154,230,0);"/>
                    <path d="M426.721,755.866L413.074,755.866L284.943,587.906L343.811,587.906L426.721,693.429L426.721,755.866ZM426.295,755.439L426.295,693.577L343.603,588.333L285.805,588.333L413.285,755.439L426.295,755.439Z" style="fill:rgb(154,230,0);"/>
                </g>
                <g transform="matrix(2.95186,0,0,2.95186,-324.432,-1151.21)">
                    <path d="M276.326,559.564L288,544.797L340.712,544.797L324.895,563.832L343.811,587.906L284.943,587.906L276.326,576.611L276.326,559.564Z" style="fill:rgb(154,230,0);"/>
                    <path d="M276.326,559.564L288,544.797L340.712,544.797L324.895,563.832L343.811,587.906L284.943,587.906L276.326,576.611L276.326,559.564ZM277.274,559.893L277.274,576.29L285.412,586.958L341.86,586.958L323.676,563.816L338.692,545.745L288.459,545.745L277.274,559.893Z" style="fill:rgb(154,230,0);"/>
                </g>
                <g transform="matrix(2.95186,0,0,2.95186,-324.432,-1151.21)">
                    <path d="M475.779,755.866L426.721,755.866L426.721,693.429L475.779,755.866Z" style="fill:rgb(94,165,0);"/>
                    <path d="M475.779,755.866L426.721,755.866L426.721,693.429L475.779,755.866ZM474.901,755.439L427.148,694.663L427.148,755.439L474.901,755.439Z" style="fill:rgb(94,165,0);"/>
                </g>
                <g transform="matrix(2.95186,0,0,2.95186,-324.432,-1151.21)">
                    <path d="M426.721,389.995L469.34,389.995L426.721,441.286L426.721,389.995Z" style="fill:rgb(94,165,0);"/>
                    <path d="M426.721,389.995L469.34,389.995L426.721,441.286L426.721,389.995ZM427.148,390.421L427.148,440.105L468.431,390.421L427.148,390.421Z" style="fill:rgb(94,165,0);"/>
                </g>
                <g transform="matrix(2.95186,0,0,2.95186,-324.432,-1151.21)">
                    <path d="M288,544.797L351.336,464.683L410.274,389.995L426.721,389.995L426.721,441.286L340.712,544.797L288,544.797Z" style="fill:rgb(154,230,0);"/>
                    <path d="M288,544.797L351.336,464.683L410.274,389.995L426.721,389.995L426.721,441.286L340.712,544.797L288,544.797ZM288.881,544.37L340.512,544.37L426.295,441.131L426.295,390.421L410.481,390.421L351.671,464.947L288.881,544.37Z" style="fill:rgb(154,230,0);"/>
                </g>
                <g transform="matrix(2.95186,0,0,2.95186,-324.432,-1151.21)">
                    <rect x="251.571" y="389.995" width="24.77" height="365.871" style="fill:rgb(18,18,18);stroke:rgb(18,18,18);stroke-width:0.43px;"/>
                </g>
            </g>
            <g>
                <g transform="matrix(2.9062,0,0,2.95186,-277.486,-1151.21)">
                    <path d="M460.561,389.995L467.101,389.995L467.101,755.866L417.273,693.429L417.273,587.906L333.059,587.906L313.847,563.832L329.912,544.797L417.273,544.797L417.273,441.286L460.561,389.995Z" style="fill:rgb(18,18,18);"/>
                    <path d="M460.561,389.995L467.101,389.995L467.101,755.866L417.273,693.429L417.273,587.906L333.059,587.906L313.847,563.832L329.912,544.797L417.273,544.797L417.273,441.286L460.561,389.995ZM460.764,390.421L417.706,441.44L417.706,545.224L330.115,545.224L314.404,563.84L333.27,587.48L417.706,587.48L417.706,693.282L466.667,754.632L466.667,390.421L460.764,390.421Z" style="fill:rgb(18,18,18);"/>
                </g>
                <g transform="matrix(2.9062,0,0,2.95186,-277.486,-1151.21)">
                    <path d="M273.266,587.906L264.514,587.906L264.514,576.611L273.266,587.906Z" style="fill:rgb(18,18,18);"/>
                    <path d="M273.266,587.906L264.514,587.906L264.514,576.611L273.266,587.906ZM264.947,577.873L264.947,587.48L272.391,587.48L264.947,577.873Z" style="fill:rgb(18,18,18);"/>
                </g>
                <g transform="matrix(2.9062,0,0,2.95186,-277.486,-1151.21)">
                    <path d="M264.514,544.797L276.371,544.797L264.514,559.564L264.514,544.797Z" style="fill:rgb(18,18,18);"/>
                    <path d="M264.514,544.797L276.371,544.797L264.514,559.564L264.514,544.797ZM264.947,545.224L264.947,558.336L275.476,545.224L264.947,545.224Z" style="fill:rgb(18,18,18);"/>
                </g>
                <g transform="matrix(3.17713,0,0,2.95186,-335.401,-1151.21)">
                    <rect x="213.762" y="389.995" width="25.608" height="365.871" style="fill:rgb(18,18,18);stroke:rgb(18,18,18);stroke-width:0.41px;stroke-linecap:square;"/>
                </g>
            </g>
        </g>
        <g id="Background" transform="matrix(1.05565,0,0,1.05565,-60.1011,-60.1011)">
            <path d="M568.466,56.933C850.789,56.933 1080,286.143 1080,568.466C1080,850.789 850.789,1080 568.466,1080C286.143,1080 56.933,850.789 56.933,568.466C56.933,286.143 286.143,56.933 568.466,56.933ZM568.466,84.71C301.474,84.71 84.71,301.474 84.71,568.466C84.71,835.459 301.474,1052.22 568.466,1052.22C835.459,1052.22 1052.22,835.459 1052.22,568.466C1052.22,301.474 835.459,84.71 568.466,84.71Z" style="fill:rgb(18,18,18);"/>
        </g>
    </g>
</svg>
